<svg width="621" height="284" viewBox="0 0 621 284" fill="none" xmlns="http://www.w3.org/2000/svg">
<path d="M7.45455 124V113.5L55.1818 45.0455H7.18182V30.9091H76.0909V41.4091L28.4091 109.864H76.3636V124H7.45455ZM95.2418 124V30.9091H112.105V70.3182H155.242V30.9091H172.151V124H155.242V84.4545H112.105V124H95.2418ZM276.234 77.4545C276.234 87.4848 274.355 96.0758 270.597 103.227C266.87 110.348 261.779 115.803 255.325 119.591C248.9 123.379 241.612 125.273 233.461 125.273C225.309 125.273 218.006 123.379 211.552 119.591C205.128 115.773 200.037 110.303 196.279 103.182C192.552 96.0303 190.688 87.4545 190.688 77.4545C190.688 67.4242 192.552 58.8485 196.279 51.7273C200.037 44.5758 205.128 39.1061 211.552 35.3182C218.006 31.5303 225.309 29.6364 233.461 29.6364C241.612 29.6364 248.9 31.5303 255.325 35.3182C261.779 39.1061 266.87 44.5758 270.597 51.7273C274.355 58.8485 276.234 67.4242 276.234 77.4545ZM259.279 77.4545C259.279 70.3939 258.173 64.4394 255.961 59.5909C253.779 54.7121 250.749 51.0303 246.87 48.5455C242.991 46.0303 238.522 44.7727 233.461 44.7727C228.4 44.7727 223.931 46.0303 220.052 48.5455C216.173 51.0303 213.128 54.7121 210.915 59.5909C208.734 64.4394 207.643 70.3939 207.643 77.4545C207.643 84.5151 208.734 90.4848 210.915 95.3636C213.128 100.212 216.173 103.894 220.052 106.409C223.931 108.894 228.4 110.136 233.461 110.136C238.522 110.136 242.991 108.894 246.87 106.409C250.749 103.894 253.779 100.212 255.961 95.3636C258.173 90.4848 259.279 84.5151 259.279 77.4545ZM357.1 60.6364C356.343 58.1818 355.297 55.9848 353.964 54.0455C352.661 52.0758 351.085 50.3939 349.237 49C347.419 47.6061 345.328 46.5606 342.964 45.8636C340.6 45.1364 338.025 44.7727 335.237 44.7727C330.237 44.7727 325.782 46.0303 321.873 48.5455C317.964 51.0606 314.888 54.7576 312.646 59.6364C310.434 64.4848 309.328 70.3939 309.328 77.3636C309.328 84.3939 310.434 90.3485 312.646 95.2273C314.858 100.106 317.934 103.818 321.873 106.364C325.813 108.879 330.388 110.136 335.6 110.136C340.328 110.136 344.419 109.227 347.873 107.409C351.358 105.591 354.04 103.015 355.919 99.6818C357.797 96.3182 358.737 92.3788 358.737 87.8636L362.555 88.4545H337.282V75.2727H375.055V86.4545C375.055 94.4242 373.358 101.318 369.964 107.136C366.57 112.955 361.903 117.439 355.964 120.591C350.025 123.712 343.207 125.273 335.51 125.273C326.934 125.273 319.403 123.348 312.919 119.5C306.464 115.621 301.419 110.121 297.782 103C294.176 95.8485 292.373 87.3636 292.373 77.5455C292.373 70.0303 293.434 63.3182 295.555 57.4091C297.707 51.5 300.707 46.4848 304.555 42.3636C308.403 38.2121 312.919 35.0606 318.1 32.9091C323.282 30.7273 328.919 29.6364 335.01 29.6364C340.161 29.6364 344.964 30.3939 349.419 31.9091C353.873 33.3939 357.828 35.5151 361.282 38.2727C364.767 41.0303 367.631 44.303 369.873 48.0909C372.116 51.8788 373.585 56.0606 374.282 60.6364H357.1ZM403.001 124H385.001L417.774 30.9091H438.592L471.41 124H453.41L428.547 50H427.82L403.001 124ZM403.592 87.5H452.683V101.045H403.592V87.5Z" fill="#F37F0B"/>
<g filter="url(#filter0_d_21_2)">
<path d="M343.944 230.992C341.299 230.992 338.781 230.224 336.392 228.688C334.003 227.237 332.211 224.976 331.016 221.904C330.589 220.795 330.291 219.6 330.12 218.32C329.949 217.04 329.864 215.845 329.864 214.736V213.584C329.864 212.901 329.907 212.219 329.992 211.536C330.163 210.853 330.547 210.512 331.144 210.512C331.315 210.512 331.4 210.597 331.4 210.768C331.4 211.28 331.357 211.835 331.272 212.432C331.272 212.944 331.272 213.456 331.272 213.968C331.272 217.979 332.253 221.008 334.216 223.056C336.264 225.104 338.781 226.128 341.768 226.128C344.755 226.128 347.656 225.275 350.472 223.568C353.288 221.861 355.891 219.685 358.28 217.04C360.669 214.395 362.931 211.109 365.064 207.184C367.197 203.259 369.203 199.12 371.08 194.768C372.957 190.331 374.707 185.979 376.328 181.712C378.035 177.445 379.613 173.648 381.064 170.32C381.917 168.357 383.496 166.693 385.8 165.328C388.189 163.963 390.451 162.981 392.584 162.384C391.987 162.299 391.389 162.256 390.792 162.256C390.28 162.171 389.768 162.085 389.256 162L371.208 160.208C369.843 160.037 368.051 159.909 365.832 159.824C363.613 159.739 361.267 159.696 358.792 159.696C355.464 159.696 352.051 159.909 348.552 160.336C345.053 160.677 341.896 161.317 339.08 162.256C336.264 163.195 334.216 164.603 332.936 166.48C332.253 167.504 331.912 168.699 331.912 170.064C331.912 171.429 332.296 172.709 333.064 173.904C333.832 175.099 334.813 176.037 336.008 176.72C336.179 176.891 336.264 177.019 336.264 177.104C336.264 177.36 336.051 177.573 335.624 177.744C335.283 177.915 334.899 177.915 334.472 177.744C333.704 177.317 332.808 176.592 331.784 175.568C330.76 174.544 329.821 173.477 328.968 172.368C328.2 171.173 327.645 170.192 327.304 169.424C326.792 167.973 326.536 166.693 326.536 165.584C326.536 163.536 327.219 161.872 328.584 160.592C330.035 159.227 331.869 158.203 334.088 157.52C336.392 156.752 338.824 156.24 341.384 155.984C344.029 155.643 346.547 155.472 348.936 155.472C349.875 155.472 350.771 155.472 351.624 155.472C352.477 155.472 353.288 155.515 354.056 155.6C356.787 155.771 359.645 155.941 362.632 156.112C365.619 156.283 368.648 156.496 371.72 156.752L392.072 158.416C393.437 158.501 395.485 158.672 398.216 158.928C401.032 159.099 403.891 159.184 406.792 159.184C409.949 159.184 412.851 159.013 415.496 158.672C418.141 158.245 419.891 157.52 420.744 156.496C420.915 156.155 421.171 156.069 421.512 156.24C421.853 156.411 421.939 156.624 421.768 156.88C421.512 157.904 421.171 158.672 420.744 159.184C420.317 160.037 419.72 160.976 418.952 162C418.269 163.024 417.203 163.707 415.752 164.048C415.411 164.133 414.941 164.219 414.344 164.304C413.747 164.304 413.107 164.304 412.424 164.304C410.461 164.304 408.072 164.176 405.256 163.92C402.525 163.579 399.837 163.237 397.192 162.896C394.632 163.323 392.413 164.517 390.536 166.48C388.659 168.443 387.037 170.704 385.672 173.264C384.307 175.739 383.112 178.085 382.088 180.304C380.211 184.144 378.632 187.685 377.352 190.928C376.157 194.085 374.664 197.584 372.872 201.424C371.08 205.349 369.203 209.232 367.24 213.072C365.277 216.827 362.888 220.24 360.072 223.312C357.939 225.616 355.464 227.451 352.648 228.816C349.832 230.267 346.931 230.992 343.944 230.992ZM391.77 227.792C391.429 227.792 391.429 227.451 391.77 226.768C392.197 226 392.581 225.147 392.922 224.208C393.349 223.269 393.775 222.245 394.202 221.136C395.055 219.088 395.994 216.784 397.018 214.224C398.042 211.664 399.023 209.189 399.962 206.8C400.901 204.325 401.711 202.235 402.394 200.528C403.162 198.736 403.674 197.584 403.93 197.072C402.735 198.352 401.285 199.973 399.578 201.936C397.957 203.813 396.421 205.648 394.97 207.44C393.519 209.232 392.41 210.64 391.642 211.664C391.386 212.005 391.173 212.176 391.002 212.176C390.831 212.176 390.746 211.963 390.746 211.536C390.746 210.853 390.959 210.213 391.386 209.616C393.007 207.568 394.799 205.264 396.762 202.704C398.81 200.144 400.645 197.797 402.266 195.664C403.887 193.445 404.911 191.995 405.338 191.312C406.277 191.141 407.642 190.885 409.434 190.544C411.311 190.203 412.591 189.733 413.274 189.136C413.53 188.88 413.786 188.752 414.042 188.752C414.213 188.752 414.298 188.923 414.298 189.264C414.383 189.52 414.298 189.819 414.042 190.16C413.53 190.672 412.762 191.781 411.738 193.488C410.799 195.195 409.733 197.157 408.538 199.376C407.343 201.595 406.191 203.728 405.082 205.776C405.935 204.496 407.045 203.003 408.41 201.296C409.861 199.504 411.439 197.797 413.146 196.176C414.853 194.469 416.559 193.061 418.266 191.952C420.058 190.843 421.722 190.288 423.258 190.288C424.367 190.288 425.306 190.544 426.074 191.056C426.842 191.483 427.439 192.293 427.866 193.488C428.122 194.085 428.25 194.768 428.25 195.536C428.25 196.987 427.866 198.395 427.098 199.76C426.415 201.04 425.903 202.021 425.562 202.704C425.477 202.96 425.178 203.216 424.666 203.472C424.154 203.643 423.941 203.557 424.026 203.216C424.111 202.789 424.154 202.363 424.154 201.936C424.239 201.509 424.282 201.04 424.282 200.528C424.282 199.077 423.983 197.755 423.386 196.56C422.874 195.365 421.893 194.768 420.442 194.768C419.077 194.768 417.413 195.621 415.45 197.328C413.487 199.035 411.525 200.997 409.562 203.216C407.087 206.117 405.125 208.891 403.674 211.536C402.223 214.096 401.029 216.613 400.09 219.088C399.578 220.453 399.066 221.819 398.554 223.184C398.042 224.464 397.658 225.488 397.402 226.256C396.293 226.341 395.183 226.597 394.074 227.024C392.965 227.536 392.197 227.792 391.77 227.792ZM434.325 226.256C432.96 226.256 431.722 226 430.613 225.488C429.589 224.891 429.077 223.653 429.077 221.776C429.077 218.789 429.845 215.803 431.381 212.816C432.917 209.744 434.496 207.056 436.117 204.752C437.568 202.789 439.189 200.955 440.981 199.248C442.858 197.456 444.864 195.92 446.997 194.64C448.362 193.787 450.197 192.891 452.501 191.952C454.89 190.928 456.896 190.416 458.517 190.416C459.882 190.416 461.077 190.8 462.101 191.568C463.125 192.251 463.637 193.531 463.637 195.408C463.637 198.309 462.869 201.296 461.333 204.368C459.882 207.355 458.346 210 456.725 212.304C455.957 213.328 455.189 214.309 454.421 215.248C453.653 216.101 452.8 216.997 451.861 217.936C455.018 217.936 457.92 217.04 460.565 215.248C463.21 213.371 465.514 211.109 467.477 208.464L467.733 208.208C467.989 208.208 468.117 208.464 468.117 208.976C468.117 209.573 467.946 210.128 467.605 210.64C465.898 213.029 463.765 215.163 461.205 217.04C458.645 218.832 455.744 219.728 452.501 219.728C452.16 219.728 451.818 219.728 451.477 219.728C451.136 219.728 450.794 219.685 450.453 219.6C445.674 224.037 440.298 226.256 434.325 226.256ZM437.653 224.08C438.848 224.08 440.128 223.653 441.493 222.8C442.944 221.947 444.053 221.136 444.821 220.368C446.272 218.917 447.594 217.381 448.789 215.76C449.984 214.053 451.093 212.347 452.117 210.64C453.312 208.592 454.506 206.16 455.701 203.344C456.896 200.528 457.493 197.883 457.493 195.408C457.493 193.445 456.81 192.464 455.445 192.464C454.336 192.464 452.97 192.933 451.349 193.872C449.813 194.811 448.661 195.664 447.893 196.432C444.992 199.419 442.56 202.661 440.597 206.16C439.488 208.123 438.293 210.427 437.013 213.072C435.733 215.717 435.093 218.149 435.093 220.368C435.093 220.709 435.093 221.051 435.093 221.392C435.178 221.648 435.264 221.947 435.349 222.288C435.69 223.483 436.458 224.08 437.653 224.08ZM473.32 227.92C472.979 227.92 472.979 227.536 473.32 226.768C473.747 226 474.131 225.147 474.472 224.208C474.899 223.269 475.325 222.245 475.752 221.136C476.605 219.088 477.544 216.784 478.568 214.224C479.592 211.664 480.573 209.189 481.512 206.8C482.451 204.325 483.261 202.235 483.944 200.528C484.712 198.736 485.224 197.584 485.48 197.072C484.285 198.352 482.835 199.973 481.128 201.936C479.507 203.813 477.971 205.648 476.52 207.44C475.069 209.232 473.96 210.64 473.192 211.664C472.936 212.005 472.723 212.176 472.552 212.176C472.381 212.176 472.296 211.963 472.296 211.536C472.296 210.853 472.509 210.213 472.936 209.616C474.557 207.568 476.349 205.264 478.312 202.704C480.36 200.144 482.195 197.797 483.816 195.664C485.437 193.445 486.461 191.995 486.888 191.312C487.827 191.141 489.192 190.885 490.984 190.544C492.861 190.203 494.141 189.733 494.824 189.136C495.08 188.88 495.336 188.752 495.592 188.752C495.763 188.752 495.848 188.923 495.848 189.264C495.933 189.52 495.848 189.819 495.592 190.16C495.08 190.757 494.184 192.165 492.904 194.384C491.709 196.517 490.387 198.907 488.936 201.552C487.571 204.197 486.291 206.587 485.096 208.72C486.12 207.355 487.229 206.032 488.424 204.752C489.619 203.472 490.771 202.235 491.88 201.04C492.904 200.016 494.312 198.736 496.104 197.2C497.896 195.664 499.773 194.256 501.736 192.976C503.699 191.696 505.405 190.971 506.856 190.8C507.197 190.715 507.496 190.672 507.752 190.672C508.093 190.672 508.349 190.672 508.52 190.672C510.397 190.672 511.336 191.355 511.336 192.72C511.336 193.744 510.781 195.109 509.672 196.816C509.075 197.755 508.136 199.333 506.856 201.552C505.661 203.685 504.424 206.032 503.144 208.592C501.949 211.067 500.883 213.413 499.944 215.632C499.091 217.765 498.664 219.344 498.664 220.368C498.664 221.563 499.261 222.16 500.456 222.16C501.907 222.16 503.485 221.435 505.192 219.984C506.984 218.533 508.904 216.699 510.952 214.48C513 212.176 515.048 209.744 517.096 207.184C517.267 207.355 517.352 207.653 517.352 208.08C517.352 208.677 517.139 209.275 516.712 209.872C516.371 210.384 516.029 210.853 515.688 211.28C514.835 212.389 513.683 213.797 512.232 215.504C510.867 217.125 509.459 218.747 508.008 220.368C506.557 221.904 505.235 223.141 504.04 224.08C503.187 224.677 502.077 225.317 500.712 226C499.347 226.683 497.981 227.024 496.616 227.024C495.08 227.024 494.013 226.64 493.416 225.872C492.819 225.019 492.52 223.995 492.52 222.8C492.52 221.435 492.776 219.984 493.288 218.448C493.8 216.912 494.355 215.461 494.952 214.096C495.635 212.645 496.147 211.579 496.488 210.896C498.024 207.909 499.432 205.093 500.712 202.448C501.992 199.803 502.888 197.925 503.4 196.816C503.656 196.304 503.784 195.877 503.784 195.536C503.784 194.939 503.315 194.896 502.376 195.408C501.437 195.92 500.285 196.688 498.92 197.712C497.64 198.736 496.445 199.76 495.336 200.784C494.227 201.723 493.501 202.363 493.16 202.704C490.003 206.032 487.229 209.744 484.84 213.84C482.536 217.851 480.573 221.989 478.952 226.256C477.843 226.341 476.733 226.64 475.624 227.152C474.515 227.664 473.747 227.92 473.32 227.92ZM547.826 177.104C546.631 177.104 545.778 176.72 545.266 175.952C544.925 175.525 544.754 174.971 544.754 174.288C544.754 172.923 545.394 171.813 546.674 170.96C547.613 170.448 548.466 170.192 549.234 170.192C550.514 170.192 551.41 170.576 551.922 171.344C552.263 171.771 552.434 172.325 552.434 173.008C552.434 174.373 551.751 175.483 550.386 176.336C549.618 176.848 548.765 177.104 547.826 177.104ZM525.554 226.384C524.701 226.384 523.975 226.213 523.378 225.872C522.866 225.531 522.61 224.891 522.61 223.952C522.61 222.757 522.909 221.349 523.506 219.728C524.189 218.107 524.914 216.485 525.682 214.864C526.535 213.243 527.175 211.92 527.602 210.896C528.199 209.701 528.925 208.165 529.778 206.288C530.717 204.325 531.57 202.491 532.338 200.784C533.191 198.992 533.789 197.755 534.13 197.072C532.935 198.352 531.485 199.973 529.778 201.936C528.157 203.813 526.621 205.648 525.17 207.44C523.719 209.232 522.61 210.64 521.842 211.664C521.586 212.005 521.373 212.176 521.202 212.176C521.031 212.176 520.946 211.963 520.946 211.536C520.946 210.853 521.159 210.213 521.586 209.616C523.207 207.568 524.999 205.264 526.962 202.704C529.01 200.144 530.845 197.797 532.466 195.664C534.087 193.445 535.111 191.995 535.538 191.312C536.477 191.141 537.842 190.885 539.634 190.544C541.511 190.203 542.791 189.733 543.474 189.136C543.73 188.88 543.986 188.752 544.242 188.752C544.413 188.752 544.498 188.923 544.498 189.264C544.583 189.52 544.498 189.819 544.242 190.16C543.73 190.757 542.834 192.208 541.554 194.512C540.274 196.816 538.909 199.376 537.458 202.192C536.093 204.923 534.813 207.397 533.618 209.616C532.423 211.92 531.399 214.139 530.546 216.272C529.693 218.405 529.266 219.941 529.266 220.88C529.266 222.075 529.863 222.672 531.058 222.672C532.167 222.672 533.575 221.989 535.282 220.624C537.074 219.259 538.866 217.637 540.658 215.76C542.45 213.797 544.029 212.005 545.394 210.384C545.821 209.872 546.333 209.275 546.93 208.592C547.613 207.824 548.039 207.355 548.21 207.184C548.381 207.355 548.466 207.653 548.466 208.08C548.381 208.677 548.167 209.275 547.826 209.872C547.485 210.384 547.143 210.853 546.802 211.28C545.01 213.499 543.047 215.803 540.914 218.192C538.781 220.496 536.434 222.459 533.874 224.08C531.314 225.616 528.541 226.384 525.554 226.384ZM557.603 227.024C554.446 227.024 552.227 226.427 550.947 225.232C549.667 224.037 549.027 222.501 549.027 220.624C549.027 218.149 549.838 215.419 551.459 212.432C553.08 209.36 554.616 206.8 556.067 204.752C557.518 202.789 559.139 200.955 560.931 199.248C562.808 197.456 564.814 195.92 566.947 194.64C568.312 193.787 570.147 192.891 572.451 191.952C574.84 190.928 576.846 190.416 578.467 190.416C580.43 190.416 581.795 190.885 582.563 191.824C583.331 192.677 583.715 193.744 583.715 195.024C583.715 196.048 583.544 197.115 583.203 198.224C582.862 199.248 582.478 200.229 582.051 201.168C581.795 201.68 581.411 202.064 580.899 202.32C580.387 202.491 580.131 202.405 580.131 202.064C580.131 201.637 580.174 201.253 580.259 200.912C580.344 200.571 580.387 200.187 580.387 199.76C580.387 198.139 580.003 196.56 579.235 195.024C578.552 193.403 577.486 192.592 576.035 192.592C574.499 192.592 572.835 193.147 571.043 194.256C569.251 195.28 568.014 196.176 567.331 196.944C565.112 199.248 562.936 202.107 560.803 205.52C558.755 208.933 557.262 212.176 556.323 215.248C555.726 217.04 555.427 218.576 555.427 219.856C555.427 221.307 555.811 222.331 556.579 222.928C557.347 223.525 558.286 223.824 559.395 223.824C560.248 223.824 561.144 223.696 562.083 223.44C563.107 223.184 564.174 222.885 565.283 222.544C567.843 221.691 570.403 220.368 572.963 218.576C575.608 216.699 577.998 214.736 580.131 212.688C582.264 210.555 583.886 208.72 584.995 207.184C585.166 207.355 585.251 207.611 585.251 207.952C585.251 208.379 585.08 208.891 584.739 209.488C584.398 210 584.142 210.427 583.971 210.768C582.179 213.157 579.832 215.632 576.931 218.192C574.03 220.667 570.872 222.757 567.459 224.464C564.131 226.171 560.846 227.024 557.603 227.024ZM596.807 228.048C595.271 228.048 593.65 227.835 591.943 227.408C590.236 226.981 588.7 226.299 587.335 225.36C586.055 224.336 585.202 222.971 584.775 221.264C584.69 221.008 584.647 220.624 584.647 220.112C584.647 218.917 584.903 217.595 585.415 216.144C586.012 214.693 586.738 213.669 587.591 213.072C587.932 212.901 588.188 212.901 588.359 213.072C588.615 213.243 588.658 213.413 588.487 213.584C588.402 213.84 588.274 214.181 588.103 214.608C587.932 214.949 587.804 215.333 587.719 215.76C587.463 217.979 587.932 219.941 589.127 221.648C589.639 222.331 590.236 222.971 590.919 223.568C591.687 224.165 592.412 224.677 593.095 225.104C593.692 225.445 594.418 225.701 595.271 225.872C596.124 225.957 596.978 226 597.831 226C599.196 226 600.519 225.829 601.799 225.488C603.079 225.147 604.018 224.592 604.615 223.824C605.724 222.459 606.279 220.923 606.279 219.216C606.279 217.936 605.938 216.571 605.255 215.12C604.572 213.669 603.506 212.133 602.055 210.512C601.116 209.488 600.22 208.379 599.367 207.184C598.514 205.989 597.959 204.709 597.703 203.344C597.618 203.088 597.532 202.832 597.447 202.576C597.447 202.32 597.447 202.064 597.447 201.808C596.338 203.429 595.186 204.965 593.991 206.416C592.882 207.781 591.9 208.976 591.047 210C590.706 210.512 590.407 210.768 590.151 210.768C589.98 210.768 589.895 210.597 589.895 210.256C589.895 209.488 590.236 208.677 590.919 207.824C591.602 207.056 592.37 206.117 593.223 205.008C594.076 203.813 594.759 202.875 595.271 202.192C596.722 200.059 597.788 198.395 598.471 197.2C599.239 195.92 600.05 194.768 600.903 193.744C601.842 192.635 602.994 191.739 604.359 191.056C605.81 190.373 607.303 190.032 608.839 190.032C610.631 190.032 612.252 190.331 613.703 190.928C615.239 191.44 616.05 192.805 616.135 195.024C616.135 196.048 615.922 197.115 615.495 198.224C615.154 199.248 614.77 200.229 614.343 201.168C614.087 201.68 613.703 202.064 613.191 202.32C612.764 202.491 612.551 202.405 612.551 202.064C612.551 201.723 612.594 201.339 612.679 200.912C612.764 200.485 612.807 200.101 612.807 199.76C612.807 198.309 612.551 197.029 612.039 195.92C611.612 194.725 610.972 193.872 610.119 193.36C609.266 192.763 608.37 192.464 607.431 192.464C606.066 192.464 604.743 193.019 603.463 194.128C602.183 195.152 601.543 196.517 601.543 198.224C601.543 198.395 601.543 198.608 601.543 198.864C601.543 199.12 601.586 199.333 601.671 199.504C602.012 200.869 603.036 202.405 604.743 204.112C606.45 205.819 607.772 207.312 608.711 208.592C610.332 210.811 611.143 213.072 611.143 215.376C611.143 217.68 610.46 219.813 609.095 221.776C607.815 223.653 606.066 225.147 603.847 226.256C601.714 227.451 599.367 228.048 596.807 228.048Z" fill="#232121"/>
</g>
<path d="M245 86.1667H220V77.8334C220 75.6233 220.878 73.5037 222.441 71.9409C224.004 70.3781 226.123 69.5001 228.333 69.5001H236.667C238.877 69.5001 240.996 70.3781 242.559 71.9409C244.122 73.5037 245 75.6233 245 77.8334V86.1667Z" stroke="black" stroke-width="2" stroke-linecap="round" stroke-linejoin="round"/>
<path d="M232.5 57V69.5" stroke="black" stroke-width="2" stroke-linecap="round" stroke-linejoin="round"/>
<path d="M240.833 86.1667V96.5834" stroke="black" stroke-width="2" stroke-linecap="round" stroke-linejoin="round"/>
<path d="M224.167 86.1667V96.5834" stroke="black" stroke-width="2" stroke-linecap="round" stroke-linejoin="round"/>
<defs>
<filter id="filter0_d_21_2" x="322.536" y="155.472" width="297.599" height="83.52" filterUnits="userSpaceOnUse" color-interpolation-filters="sRGB">
<feFlood flood-opacity="0" result="BackgroundImageFix"/>
<feColorMatrix in="SourceAlpha" type="matrix" values="0 0 0 0 0 0 0 0 0 0 0 0 0 0 0 0 0 0 127 0" result="hardAlpha"/>
<feOffset dy="4"/>
<feGaussianBlur stdDeviation="2"/>
<feComposite in2="hardAlpha" operator="out"/>
<feColorMatrix type="matrix" values="0 0 0 0 0 0 0 0 0 0 0 0 0 0 0 0 0 0 0.25 0"/>
<feBlend mode="normal" in2="BackgroundImageFix" result="effect1_dropShadow_21_2"/>
<feBlend mode="normal" in="SourceGraphic" in2="effect1_dropShadow_21_2" result="shape"/>
</filter>
</defs>
</svg>
